{
  "asset": {
    "version": "2.0",
    "generator": "THREE.GLTFExporter r173"
  },
  "scenes": [
    {
      "name": "Scene",
      "nodes": [
        8,
        9
      ]
    }
  ],
  "scene": 0,
  "nodes": [
    {
      "name": "Cube_1",
      "mesh": 0
    },
    {
      "name": "Cube_2",
      "mesh": 1
    },
    {
      "name": "Cube_3",
      "mesh": 2
    },
    {
      "name": "Cube_4",
      "mesh": 3
    },
    {
      "name": "Cube_5",
      "mesh": 4
    },
    {
      "name": "Cube_6",
      "mesh": 5
    },
    {
      "name": "Cube_7",
      "mesh": 6
    },
    {
      "matrix": [
        0.3499999940395355,
        0,
        0,
        0,
        0,
        0.3499999940395355,
        0,
        0,
        0,
        0,
        0.3499999940395355,
        0,
        0.3499999940395355,
        0.3499999940395355,
        -0.3499999940395355,
        1
      ],
      "name": "Cube",
      "extras": {
        "name": "Cube"
      },
      "children": [
        0,
        1,
        2,
        3,
        4,
        5,
        6
      ]
    },
    {
      "name": "rubikscube.glb",
      "children": [
        7
      ]
    },
    {
      "matrix": [
        1,
        0,
        0,
        0,
        0,
        1,
        0,
        0,
        0,
        0,
        1,
        0,
        0,
        4.649634194887816,
        0,
        1
      ],
      "name": "AmbientLight"
    }
  ],
  "bufferViews": [
    {
      "buffer": 0,
      "byteOffset": 0,
      "byteLength": 261144,
      "target": 34962,
      "byteStride": 12
    },
    {
      "buffer": 0,
      "byteOffset": 261144,
      "byteLength": 261144,
      "target": 34962,
      "byteStride": 12
    },
    {
      "buffer": 0,
      "byteOffset": 522288,
      "byteLength": 174096,
      "target": 34962,
      "byteStride": 8
    },
    {
      "buffer": 0,
      "byteOffset": 696384,
      "byteLength": 234576,
      "target": 34963
    },
    {
      "buffer": 0,
      "byteOffset": 930960,
      "byteLength": 432,
      "target": 34962,
      "byteStride": 12
    },
    {
      "buffer": 0,
      "byteOffset": 931392,
      "byteLength": 432,
      "target": 34962,
      "byteStride": 12
    },
    {
      "buffer": 0,
      "byteOffset": 931824,
      "byteLength": 288,
      "target": 34962,
      "byteStride": 8
    },
    {
      "buffer": 0,
      "byteOffset": 932112,
      "byteLength": 108,
      "target": 34963
    },
    {
      "buffer": 0,
      "byteOffset": 932220,
      "byteLength": 432,
      "target": 34962,
      "byteStride": 12
    },
    {
      "buffer": 0,
      "byteOffset": 932652,
      "byteLength": 432,
      "target": 34962,
      "byteStride": 12
    },
    {
      "buffer": 0,
      "byteOffset": 933084,
      "byteLength": 288,
      "target": 34962,
      "byteStride": 8
    },
    {
      "buffer": 0,
      "byteOffset": 933372,
      "byteLength": 432,
      "target": 34962,
      "byteStride": 12
    },
    {
      "buffer": 0,
      "byteOffset": 933804,
      "byteLength": 432,
      "target": 34962,
      "byteStride": 12
    },
    {
      "buffer": 0,
      "byteOffset": 934236,
      "byteLength": 288,
      "target": 34962,
      "byteStride": 8
    },
    {
      "buffer": 0,
      "byteOffset": 934524,
      "byteLength": 108,
      "target": 34963
    },
    {
      "buffer": 0,
      "byteOffset": 934632,
      "byteLength": 432,
      "target": 34962,
      "byteStride": 12
    },
    {
      "buffer": 0,
      "byteOffset": 935064,
      "byteLength": 432,
      "target": 34962,
      "byteStride": 12
    },
    {
      "buffer": 0,
      "byteOffset": 935496,
      "byteLength": 288,
      "target": 34962,
      "byteStride": 8
    },
    {
      "buffer": 0,
      "byteOffset": 935784,
      "byteLength": 108,
      "target": 34963
    },
    {
      "buffer": 0,
      "byteOffset": 935892,
      "byteLength": 432,
      "target": 34962,
      "byteStride": 12
    },
    {
      "buffer": 0,
      "byteOffset": 936324,
      "byteLength": 432,
      "target": 34962,
      "byteStride": 12
    },
    {
      "buffer": 0,
      "byteOffset": 936756,
      "byteLength": 288,
      "target": 34962,
      "byteStride": 8
    },
    {
      "buffer": 0,
      "byteOffset": 937044,
      "byteLength": 432,
      "target": 34962,
      "byteStride": 12
    },
    {
      "buffer": 0,
      "byteOffset": 937476,
      "byteLength": 432,
      "target": 34962,
      "byteStride": 12
    },
    {
      "buffer": 0,
      "byteOffset": 937908,
      "byteLength": 288,
      "target": 34962,
      "byteStride": 8
    },
    {
      "buffer": 0,
      "byteOffset": 938196,
      "byteLength": 108,
      "target": 34963
    }
  ],
  "buffers": [
    {
      "byteLength": 938304,
      "uri": "data:application/octet-stream;base64,"
    }
  ],
  "accessors": [
    {
      "bufferView": 0,
      "componentType": 5126,
      "count": 21762,
      "max": [
        5,
        5,
        1
      ],
      "min": [
        -1.0000014305114746,
        -1,
        -5.000000953674316
      ],
      "type": "VEC3"
    },
    {
      "bufferView": 1,
      "componentType": 5126,
      "count": 21762,
      "max": [
        0.9984146952629089,
        0.9984146952629089,
        0.9984146952629089
      ],
      "min": [
        -0.9984146952629089,
        -0.9984146952629089,
        -0.9984146952629089
      ],
      "type": "VEC3"
    },
    {
      "bufferView": 2,
      "componentType": 5126,
      "count": 21762,
      "max": [
        0.875,
        1
      ],
      "min": [
        0.125,
        0
      ],
      "type": "VEC2"
    },
    {
      "bufferView": 3,
      "componentType": 5123,
      "count": 117288,
      "max": [
        21761
      ],
      "min": [
        0
      ],
      "type": "SCALAR"
    },
    {
      "bufferView": 4,
      "componentType": 5126,
      "count": 36,
      "max": [
        4.880000114440918,
        4.880000114440918,
        1
      ],
      "min": [
        -0.8800007104873657,
        -0.8799999952316284,
        1
      ],
      "type": "VEC3"
    },
    {
      "bufferView": 5,
      "componentType": 5126,
      "count": 36,
      "max": [
        0.03980058431625366,
        0.03980058431625366,
        0.9984146952629089
      ],
      "min": [
        -0.03980058431625366,
        -0.03980058431625366,
        0.9984146952629089
      ],
      "type": "VEC3"
    },
    {
      "bufferView": 6,
      "componentType": 5126,
      "count": 36,
      "max": [
        0.6100000143051147,
        0.23499995470046997
      ],
      "min": [
        0.38999998569488525,
        0.014999985694885254
      ],
      "type": "VEC2"
    },
    {
      "bufferView": 7,
      "componentType": 5123,
      "count": 54,
      "max": [
        35
      ],
      "min": [
        0
      ],
      "type": "SCALAR"
    },
    {
      "bufferView": 8,
      "componentType": 5126,
      "count": 36,
      "max": [
        5,
        4.880000114440918,
        0.8799999952316284
      ],
      "min": [
        4.999998092651367,
        -0.8799999952316284,
        -4.880001068115234
      ],
      "type": "VEC3"
    },
    {
      "bufferView": 9,
      "componentType": 5126,
      "count": 36,
      "max": [
        0.9984146952629089,
        0.03980058431625366,
        0.03980058431625366
      ],
      "min": [
        0.9984146952629089,
        -0.03980058431625366,
        -0.03980058431625366
      ],
      "type": "VEC3"
    },
    {
      "bufferView": 10,
      "componentType": 5126,
      "count": 36,
      "max": [
        0.6100000143051147,
        0.48500001430511475
      ],
      "min": [
        0.38999998569488525,
        0.26499998569488525
      ],
      "type": "VEC2"
    },
    {
      "bufferView": 11,
      "componentType": 5126,
      "count": 36,
      "max": [
        4.879999160766602,
        5,
        0.8799999952316284
      ],
      "min": [
        -0.880001425743103,
        5,
        -4.880001068115234
      ],
      "type": "VEC3"
    },
    {
      "bufferView": 12,
      "componentType": 5126,
      "count": 36,
      "max": [
        0.03980058431625366,
        0.9984146952629089,
        0.03980058431625366
      ],
      "min": [
        -0.03980058431625366,
        0.9984146952629089,
        -0.03980058431625366
      ],
      "type": "VEC3"
    },
    {
      "bufferView": 13,
      "componentType": 5126,
      "count": 36,
      "max": [
        0.8600000143051147,
        0.48500001430511475
      ],
      "min": [
        0.64000004529953,
        0.26499998569488525
      ],
      "type": "VEC2"
    },
    {
      "bufferView": 14,
      "componentType": 5123,
      "count": 54,
      "max": [
        35
      ],
      "min": [
        0
      ],
      "type": "SCALAR"
    },
    {
      "bufferView": 15,
      "componentType": 5126,
      "count": 36,
      "max": [
        4.879999160766602,
        4.880000114440918,
        -5.000000953674316
      ],
      "min": [
        -0.880001425743103,
        -0.8799999952316284,
        -5.000000953674316
      ],
      "type": "VEC3"
    },
    {
      "bufferView": 16,
      "componentType": 5126,
      "count": 36,
      "max": [
        0.03980058431625366,
        0.03980058431625366,
        -0.9984146952629089
      ],
      "min": [
        -0.03980058431625366,
        -0.03980058431625366,
        -0.9984146952629089
      ],
      "type": "VEC3"
    },
    {
      "bufferView": 17,
      "componentType": 5126,
      "count": 36,
      "max": [
        0.6100000143051147,
        0.7350000143051147
      ],
      "min": [
        0.38999998569488525,
        0.5149999856948853
      ],
      "type": "VEC2"
    },
    {
      "bufferView": 18,
      "componentType": 5123,
      "count": 54,
      "max": [
        35
      ],
      "min": [
        0
      ],
      "type": "SCALAR"
    },
    {
      "bufferView": 19,
      "componentType": 5126,
      "count": 36,
      "max": [
        -1,
        4.880000114440918,
        0.8799999952316284
      ],
      "min": [
        -1.0000014305114746,
        -0.8799999952316284,
        -4.880001068115234
      ],
      "type": "VEC3"
    },
    {
      "bufferView": 20,
      "componentType": 5126,
      "count": 36,
      "max": [
        -0.9984146952629089,
        0.03980058431625366,
        0.03980058431625366
      ],
      "min": [
        -0.9984146952629089,
        -0.03980058431625366,
        -0.03980058431625366
      ],
      "type": "VEC3"
    },
    {
      "bufferView": 21,
      "componentType": 5126,
      "count": 36,
      "max": [
        0.6100000143051147,
        0.9850000143051147
      ],
      "min": [
        0.38999998569488525,
        0.7649999856948853
      ],
      "type": "VEC2"
    },
    {
      "bufferView": 22,
      "componentType": 5126,
      "count": 36,
      "max": [
        4.880000114440918,
        -1,
        0.8799999952316284
      ],
      "min": [
        -0.8800007104873657,
        -1,
        -4.880001068115234
      ],
      "type": "VEC3"
    },
    {
      "bufferView": 23,
      "componentType": 5126,
      "count": 36,
      "max": [
        0.03980058431625366,
        -0.9984146952629089,
        0.03980058431625366
      ],
      "min": [
        -0.03980058431625366,
        -0.9984146952629089,
        -0.03980058431625366
      ],
      "type": "VEC3"
    },
    {
      "bufferView": 24,
      "componentType": 5126,
      "count": 36,
      "max": [
        0.36000001430511475,
        0.48500001430511475
      ],
      "min": [
        0.14000000059604645,
        0.26499998569488525
      ],
      "type": "VEC2"
    },
    {
      "bufferView": 25,
      "componentType": 5123,
      "count": 54,
      "max": [
        35
      ],
      "min": [
        0
      ],
      "type": "SCALAR"
    }
  ],
  "materials": [
    {
      "pbrMetallicRoughness": {
        "baseColorFactor": [
          0,
          0,
          0,
          1
        ],
        "metallicFactor": 0,
        "roughnessFactor": 0.5
      },
      "doubleSided": true,
      "name": "Material"
    },
    {
      "pbrMetallicRoughness": {
        "baseColorFactor": [
          0.800000011920929,
          0.800000011920929,
          0.800000011920929,
          1
        ],
        "metallicFactor": 0,
        "roughnessFactor": 0.5
      },
      "doubleSided": true,
      "name": "Material.001"
    },
    {
      "pbrMetallicRoughness": {
        "baseColorFactor": [
          1,
          0,
          0,
          1
        ],
        "metallicFactor": 0,
        "roughnessFactor": 0.5
      },
      "doubleSided": true,
      "name": "Material.002"
    },
    {
      "pbrMetallicRoughness": {
        "baseColorFactor": [
          0,
          0,
          1,
          1
        ],
        "metallicFactor": 0,
        "roughnessFactor": 0.5
      },
      "doubleSided": true,
      "name": "Material.003"
    },
    {
      "pbrMetallicRoughness": {
        "baseColorFactor": [
          1,
          1,
          0,
          1
        ],
        "metallicFactor": 0,
        "roughnessFactor": 0.5
      },
      "doubleSided": true,
      "name": "Material.004"
    },
    {
      "pbrMetallicRoughness": {
        "baseColorFactor": [
          1,
          0.3762626051902771,
          0,
          1
        ],
        "metallicFactor": 0,
        "roughnessFactor": 0.5
      },
      "doubleSided": true,
      "name": "Material.005"
    },
    {
      "pbrMetallicRoughness": {
        "baseColorFactor": [
          0,
          1,
          0,
          1
        ],
        "metallicFactor": 0,
        "roughnessFactor": 0.5
      },
      "doubleSided": true,
      "name": "Material.006"
    }
  ],
  "meshes": [
    {
      "primitives": [
        {
          "mode": 4,
          "attributes": {
            "POSITION": 0,
            "NORMAL": 1,
            "TEXCOORD_0": 2
          },
          "indices": 3,
          "material": 0
        }
      ]
    },
    {
      "primitives": [
        {
          "mode": 4,
          "attributes": {
            "POSITION": 4,
            "NORMAL": 5,
            "TEXCOORD_0": 6
          },
          "indices": 7,
          "material": 1
        }
      ]
    },
    {
      "primitives": [
        {
          "mode": 4,
          "attributes": {
            "POSITION": 8,
            "NORMAL": 9,
            "TEXCOORD_0": 10
          },
          "indices": 7,
          "material": 2
        }
      ]
    },
    {
      "primitives": [
        {
          "mode": 4,
          "attributes": {
            "POSITION": 11,
            "NORMAL": 12,
            "TEXCOORD_0": 13
          },
          "indices": 14,
          "material": 3
        }
      ]
    },
    {
      "primitives": [
        {
          "mode": 4,
          "attributes": {
            "POSITION": 15,
            "NORMAL": 16,
            "TEXCOORD_0": 17
          },
          "indices": 18,
          "material": 4
        }
      ]
    },
    {
      "primitives": [
        {
          "mode": 4,
          "attributes": {
            "POSITION": 19,
            "NORMAL": 20,
            "TEXCOORD_0": 21
          },
          "indices": 18,
          "material": 5
        }
      ]
    },
    {
      "primitives": [
        {
          "mode": 4,
          "attributes": {
            "POSITION": 22,
            "NORMAL": 23,
            "TEXCOORD_0": 24
          },
          "indices": 25,
          "material": 6
        }
      ]
    }
  ]
}